# xmcd
#
# Track frame offsets:
#	150
#	16872
#	35225
#	51754
#	71543
#	87096
#	105282
#	122540
#	136052
#	151880
#	167905
#	183394
#	196151
#
# Disc length: 2856 seconds
#
# Revision: 1
# Processed by: cddbd v1.5.2PL0 Copyright (c) Steve Scherf et al.
# Submitted via: audiograbber 1.83.01
#
DISCID=9e0b260d
DTITLE=Various Artist - CDX 570
DYEAR=2013
DGENRE=Country
TTITLE0=Lady Antebellum - Goodbye Town (Radio Edit)
TTITLE1=Trace Adkins ft. Colbie Caillat - Watch The World End
TTITLE2=Heartland - I Loved Her First
TTITLE3=Sawyer_Brown- - Shadows Of The Heartland
TTITLE4=Dakota Bradley - Somethin' Like Somethin'
TTITLE5=Gwen Sebastian - Suitcase
TTITLE6=Andy Ross - Cold Dead Hand
TTITLE7=Elizabeth Lyons - Everything Tonight
TTITLE8=Wynn Varble - Freak Show
TTITLE9=Joanna Mosca - I Guess That Says It All
TTITLE10=Chelsea Bain - James Dean
TTITLE11=Tobacco Rd Band ft. Colt Ford - That's Country
TTITLE12=Branch And Dean - The Dash
EXTD=
EXTT0=
EXTT1=
EXTT2=
EXTT3=
EXTT4=
EXTT5=
EXTT6=
EXTT7=
EXTT8=
EXTT9=
EXTT10=
EXTT11=
EXTT12=
PLAYORDER=
